<?xml version="1.0" standalone="no"?>
<!DOCTYPE svg PUBLIC "-//W3C//DTD SVG 20010904//EN"
 "http://www.w3.org/TR/2001/REC-SVG-20010904/DTD/svg10.dtd">
<svg version="1.0" xmlns="http://www.w3.org/2000/svg"
 width="512.000000pt" height="512.000000pt" viewBox="0 0 512.000000 512.000000"
 preserveAspectRatio="xMidYMid meet">

<g transform="translate(0.000000,512.000000) scale(0.100000,-0.100000)"
fill="#000000" stroke="none">
<path d="M2432 4956 c-115 -31 -179 -65 -258 -138 -53 -50 -67 -58 -101 -58
-56 0 -181 -34 -245 -66 -203 -102 -329 -317 -328 -563 1 -167 41 -331 119
-483 l39 -76 -34 -33 c-51 -50 -75 -108 -81 -197 -11 -153 48 -268 162 -318
22 -10 41 -18 42 -19 2 -1 14 -41 28 -90 51 -175 126 -306 237 -417 l68 -67
-15 -88 c-18 -106 -54 -212 -75 -223 -8 -4 -116 -38 -240 -75 -226 -67 -260
-83 -260 -124 0 -15 -17 -19 -107 -29 -388 -40 -689 -293 -805 -674 -21 -70
-22 -91 -26 -555 -3 -476 -3 -482 17 -502 l21 -21 1970 0 1970 0 21 21 c20 20
20 26 17 502 -4 464 -5 485 -26 555 -118 390 -439 651 -834 679 -82 6 -88 7
-88 28 0 12 -8 29 -17 38 -15 12 -149 55 -475 153 -20 6 -53 90 -73 186 -25
117 -24 121 59 208 112 117 203 290 237 451 9 41 14 47 47 57 53 16 109 66
139 126 22 42 28 68 31 147 3 62 0 111 -8 135 -19 59 -68 123 -106 142 -24 11
-34 21 -30 32 3 8 21 60 40 115 108 314 96 623 -35 841 -142 236 -465 409
-784 420 -104 4 -132 1 -213 -20z m363 -137 c315 -82 517 -252 580 -489 35
-130 29 -313 -17 -483 l-20 -78 -40 81 c-46 94 -133 193 -206 233 -79 43 -151
57 -256 50 -217 -14 -430 51 -611 187 -44 33 -90 63 -101 66 -31 8 -74 -17
-149 -87 -135 -127 -216 -280 -249 -471 l-12 -73 -22 65 c-51 150 -66 340 -37
449 55 207 197 325 425 354 l105 14 62 60 c100 99 211 141 374 142 66 1 119
-5 174 -20z m-633 -629 c170 -129 453 -212 675 -196 79 5 99 3 149 -15 72 -27
141 -94 184 -179 34 -68 70 -194 70 -247 0 -35 15 -73 34 -85 6 -4 28 -8 49
-8 78 0 107 -41 107 -150 0 -108 -30 -151 -120 -175 -29 -8 -57 -18 -62 -23
-5 -5 -17 -49 -27 -98 -78 -376 -322 -593 -667 -594 -177 0 -327 61 -450 184
-115 115 -186 256 -215 423 -12 74 -30 103 -63 103 -12 0 -40 9 -64 20 -54 24
-81 79 -82 163 0 102 33 147 109 147 54 0 64 26 62 157 -3 192 36 341 125 474
36 55 115 139 131 139 1 0 26 -18 55 -40z m179 -1880 c153 -43 326 -37 481 16
87 29 88 29 88 2 0 -38 39 -179 64 -235 l25 -52 -34 -222 c-19 -121 -37 -224
-40 -227 -26 -27 -713 -28 -739 -1 -3 3 -20 104 -39 224 -31 204 -33 223 -19
255 26 60 61 172 72 232 l11 58 28 -15 c16 -8 62 -24 102 -35z m-343 -422 c13
-99 37 -259 131 -877 39 -256 70 -466 68 -467 -3 -3 -471 756 -475 770 -1 7
24 43 58 81 33 37 60 76 60 86 0 10 -41 101 -92 203 -50 102 -90 187 -87 189
6 4 302 94 315 96 6 0 15 -35 22 -81z m1304 31 c82 -24 148 -47 148 -52 0 -4
-41 -89 -91 -188 -62 -125 -89 -189 -85 -204 3 -12 32 -52 65 -89 l59 -67
-241 -389 c-133 -214 -242 -388 -243 -387 -2 2 204 1372 211 1405 3 13 11 21
18 19 7 -2 78 -24 159 -48z m-1684 -284 c34 -69 62 -130 62 -136 0 -6 -27 -41
-61 -77 -51 -56 -60 -71 -57 -97 2 -17 136 -243 316 -534 172 -277 312 -505
312 -507 0 -2 -337 -4 -750 -4 l-750 0 0 403 c0 373 2 410 20 483 52 203 179
374 351 476 35 21 64 36 66 34 2 -1 -7 -25 -18 -52 -37 -82 -59 -184 -66 -301
-3 -62 -10 -113 -14 -113 -4 0 -35 -25 -68 -56 -42 -39 -71 -77 -93 -123 -60
-126 -48 -299 31 -423 37 -59 61 -66 132 -38 70 28 89 46 89 85 0 46 -29 69
-80 62 -47 -6 -52 0 -69 84 -23 112 28 226 129 286 130 78 298 18 366 -131 32
-71 35 -110 9 -114 -33 -6 -55 -33 -55 -67 0 -43 26 -64 91 -74 57 -9 87 -3
107 22 16 19 17 160 2 219 -46 173 -201 305 -369 316 l-74 5 6 81 c12 157 59
277 143 364 l50 52 90 0 89 0 63 -125z m2123 83 c65 -88 121 -260 135 -410 l6
-73 -37 -13 c-81 -30 -147 -121 -161 -219 -20 -153 114 -303 271 -303 158 0
290 149 271 304 -12 95 -79 183 -167 220 l-36 15 -12 99 c-13 107 -44 234 -79
320 -14 34 -18 52 -10 52 29 0 164 -77 225 -129 131 -110 222 -254 263 -415
18 -73 20 -113 20 -483 l0 -403 -756 0 -756 0 23 38 c13 20 155 250 316 511
193 312 293 484 293 501 0 19 -19 48 -60 95 -33 37 -60 72 -60 76 0 5 28 65
62 134 l63 125 77 0 78 0 31 -42z m-837 -303 c-2 -11 -40 -261 -84 -555 -44
-294 -82 -545 -85 -557 -5 -23 -7 -23 -180 -23 -96 0 -175 1 -175 3 0 1 -40
261 -88 577 l-87 575 352 0 c347 0 352 0 347 -20z m1123 -330 c13 -9 33 -30
43 -48 53 -85 -13 -197 -115 -197 -106 0 -170 115 -112 201 43 65 122 84 184
44z"/>
</g>
</svg>
